<?xml version="1.0" encoding="iso-8859-1"?>
<!-- Generator: Adobe Illustrator 19.0.0, SVG Export Plug-In . SVG Version: 6.00 Build 0)  -->
<svg xmlns="http://www.w3.org/2000/svg" xmlns:xlink="http://www.w3.org/1999/xlink" version="1.1" id="Capa_1" x="0px" y="0px" viewBox="0 0 512 512" style="enable-background:new 0 0 512 512;" xml:space="preserve" width="512px" height="512px">
<g>
	<g>
		<path d="M450.136,126.38l-56.776-60.832c-1.439-1.541-3.451-2.416-5.559-2.416H122.234c-17.087,0-30.987,13.9-30.987,30.986v74.9    c0,17.086,13.901,30.986,30.987,30.986H387.8c2.109,0,4.121-0.875,5.559-2.415l56.776-60.832    C452.861,133.835,452.861,129.302,450.136,126.38z M384.497,184.796H122.234c-8.701,0-15.779-7.078-15.779-15.778v-74.9    c0-8.7,7.079-15.778,15.779-15.778h262.264l49.679,53.228L384.497,184.796z" fill="#f33838"/>
	</g>
</g>
<g>
	<g>
		<path d="M389.767,210.14H124.2c-2.108,0-4.121,0.875-5.559,2.416l-56.776,60.832c-2.726,2.922-2.726,7.455,0,10.377l56.776,60.832    c1.439,1.541,3.451,2.416,5.559,2.416h66.915c4.199,0,7.604-3.405,7.604-7.604c0-4.199-3.405-7.604-7.604-7.604h-63.611    l-49.679-53.228l49.679-53.228h262.263c8.701,0,15.779,7.078,15.779,15.778v74.9c0,8.7-7.079,15.778-15.779,15.778H216.463    c-4.199,0-7.604,3.405-7.604,7.604c0,4.199,3.405,7.604,7.604,7.604h173.304c17.086,0,30.986-13.9,30.987-30.987v-74.9    C420.754,224.04,406.854,210.14,389.767,210.14z" fill="#f33838"/>
	</g>
</g>
<g>
	<g>
		<path d="M293.513,357.153c-4.2,0-7.604,3.405-7.604,7.604v132.035h-35.485V364.757c0-4.199-3.405-7.604-7.604-7.604    s-7.604,3.405-7.604,7.604v139.639c0,4.199,3.405,7.604,7.604,7.604h50.693c4.2,0,7.604-3.405,7.604-7.604V364.757    C301.117,360.557,297.714,357.153,293.513,357.153z" fill="#f33838"/>
	</g>
</g>
<g>
	<g>
		<path d="M293.513,0H242.82c-4.199,0-7.604,3.405-7.604,7.604v37.787c0,4.199,3.405,7.604,7.604,7.604s7.604-3.405,7.604-7.604    V15.208h35.485v30.183c0,4.199,3.404,7.604,7.604,7.604s7.604-3.405,7.604-7.604V7.604C301.117,3.405,297.714,0,293.513,0z" fill="#f33838"/>
	</g>
</g>
<g>
</g>
<g>
</g>
<g>
</g>
<g>
</g>
<g>
</g>
<g>
</g>
<g>
</g>
<g>
</g>
<g>
</g>
<g>
</g>
<g>
</g>
<g>
</g>
<g>
</g>
<g>
</g>
<g>
</g>
</svg>
