<?xml version="1.0" encoding="iso-8859-1"?>
<!DOCTYPE svg PUBLIC "-//W3C//DTD SVG 1.1//EN" "http://www.w3.org/Graphics/SVG/1.1/DTD/svg11.dtd">
<svg xmlns="http://www.w3.org/2000/svg" xmlns:xlink="http://www.w3.org/1999/xlink" version="1.1" viewBox="0 0 452.843 452.843" enable-background="new 0 0 452.843 452.843" width="512px" height="512px">
  <g>
    <path d="m346.264,0h-239.684c-18.693,0-33.901,15.208-33.901,33.901v385.041c0,18.693 15.208,33.901 33.901,33.901h239.684c18.692,0 33.9-15.208 33.9-33.901v-385.041c0-18.693-15.208-33.901-33.9-33.901zm-239.684,15h239.684c10.422,0 18.9,8.479 18.9,18.901v44.778h-277.485v-44.778c2.84217e-14-10.422 8.479-18.901 18.901-18.901zm258.584,78.679v265.486h-277.485v-265.486h277.485zm-18.9,344.164h-239.684c-10.422,0-18.901-8.479-18.901-18.901v-44.778h277.485v44.778c0,10.422-8.478,18.901-18.9,18.901z" fill="#deb4da"/>
    <path d="m226.422,380.981c-14.061,0-25.499,11.439-25.499,25.499s11.438,25.499 25.499,25.499 25.499-11.439 25.499-25.499-11.438-25.499-25.499-25.499zm0,35.998c-5.789,0-10.499-4.71-10.499-10.499s4.71-10.499 10.499-10.499 10.499,4.71 10.499,10.499-4.71,10.499-10.499,10.499z" fill="#deb4da"/>
    <path d="m116.55,214.257c1.122,2.88 3.897,4.777 6.988,4.777h20.324v116.815c0,4.142 3.357,7.5 7.5,7.5h150.119c4.143,0 7.5-3.358 7.5-7.5v-116.815h20.324c3.091,0 5.866-1.896 6.988-4.777s0.362-6.154-1.914-8.246l-102.884-94.539c-2.869-2.637-7.279-2.637-10.148,0l-102.884,94.539c-2.275,2.092-3.035,5.366-1.913,8.246zm109.872-87.077l83.638,76.854h-8.578c-4.143,0-7.5,3.358-7.5,7.5v116.815h-135.119v-116.815c0-4.142-3.357-7.5-7.5-7.5h-8.578l83.637-76.854z" fill="#deb4da"/>
    <path d="m197.923,295.486h56.997c4.143,0 7.5-3.358 7.5-7.5v-61.497c0-4.142-3.357-7.5-7.5-7.5h-56.997c-4.143,0-7.5,3.358-7.5,7.5v61.497c0,4.142 3.358,7.5 7.5,7.5zm7.5-61.497h41.997v46.497h-41.997v-46.497z" fill="#deb4da"/>
    <path d="m185.924,55.698h80.996c4.143,0 7.5-3.358 7.5-7.5s-3.357-7.5-7.5-7.5h-80.996c-4.143,0-7.5,3.358-7.5,7.5s3.357,7.5 7.5,7.5z" fill="#deb4da"/>
  </g>
</svg>
