<svg height="512pt" viewBox="0 0 512 512" width="512pt" xmlns="http://www.w3.org/2000/svg"><path d="m242.460938 361.988281c5.308593-.238281 9.539062-4.628906 9.539062-9.988281s-4.230469-9.75-9.539062-9.988281c-.152344-.011719-.300782-.011719-.460938-.011719-5.519531 0-10 4.480469-10 10s4.480469 10 10 10c.160156 0 .308594 0 .460938-.011719zm0 0"/><path d="m352 192c-12.238281 0-24.316406 1.382812-36.101562 4.101562 2.71875-11.785156 4.101562-23.863281 4.101562-36.101562 0-88.222656-71.777344-160-160-160s-160 71.777344-160 160 71.777344 160 160 160c12.257812 0 24.335938-1.378906 36.101562-4.097656-2.71875 11.777344-4.101562 23.855468-4.101562 36.097656 0 88.222656 71.777344 160 160 160s160-71.777344 160-160-71.777344-160-160-160zm-192 108c-77.195312 0-140-62.804688-140-140s62.804688-140 140-140 140 62.804688 140 140c0 14.757812-2.285156 29.25-6.78125 43.148438-9.835938 3.878906-19.167969 8.679687-27.902344 14.292968 9.605469-17.550781 14.683594-37.351562 14.683594-57.441406 0-66.167969-53.832031-120-120-120s-120 53.832031-120 120 53.832031 120 120 120c20.15625 0 39.898438-5.070312 57.449219-14.6875-5.613281 8.734375-10.414063 18.066406-14.292969 27.902344-13.867188 4.5-28.359375 6.785156-43.15625 6.785156zm100-140c0 35.089844-17.9375 66.996094-47.996094 85.378906-.0625.035156-.125.074219-.191406.113282-15.566406 9.492187-33.480469 14.507812-51.8125 14.507812-55.140625 0-100-44.859375-100-100s44.859375-100 100-100 100 44.859375 100 100zm92 332c-77.195312 0-140-62.804688-140-140 0-77.441406 62.640625-140 140-140 77.195312 0 140 62.804688 140 140s-62.804688 140-140 140zm0 0"/><path d="m352 232c-49.757812 0-93.734375 30.230469-112.042969 77.015625-2.011719 5.144531.527344 10.945313 5.667969 12.957031 5.144531 2.011719 10.945312-.523437 12.957031-5.667968 15.285157-39.0625 51.953125-64.304688 93.417969-64.304688 55.140625 0 100 44.859375 100 100s-44.859375 100-100 100c-41.464844 0-78.132812-25.242188-93.417969-64.304688-2.011719-5.140624-7.8125-7.679687-12.957031-5.667968-5.140625 2.011718-7.679688 7.8125-5.667969 12.957031 18.308594 46.785156 62.285157 77.015625 112.042969 77.015625 66.167969 0 120-53.832031 120-120s-53.832031-120-120-120zm0 0"/><path d="m352 382c-4.273438 0-8.882812-2.6875-12.984375-7.566406-3.554687-4.226563-9.863281-4.773438-14.089844-1.21875-4.230469 3.554687-4.773437 9.863281-1.21875 14.089844 5.34375 6.359374 11.632813 10.789062 18.292969 13.023437v11.671875c0 5.523438 4.476562 10 10 10s10-4.476562 10-10v-11.71875c11.640625-4.128906 20-15.246094 20-28.28125 0-16.542969-13.457031-30-30-30-5.515625 0-10-4.484375-10-10s4.484375-10 10-10c3.542969 0 7.28125 1.808594 10.816406 5.226562 3.96875 3.839844 10.300782 3.738282 14.140625-.234374 3.839844-3.96875 3.734375-10.296876-.234375-14.136719-5.074218-4.914063-10.152344-7.691407-14.722656-9.207031v-11.648438c0-5.523438-4.476562-10-10-10s-10 4.476562-10 10v11.71875c-11.640625 4.128906-20 15.246094-20 28.28125 0 16.542969 13.457031 30 30 30 5.511719 0 10 4.484375 10 10s-4.484375 10-10 10zm0 0"/><path d="m461.582031 160.40625c2.433594 4.957031 8.425781 7.003906 13.382813 4.570312 4.957031-2.429687 7.003906-8.421874 4.574218-13.378906-22.113281-45.066406-57.101562-82.929687-99.953124-108.671875l4.609374-1.234375c5.335938-1.429687 8.503907-6.914062 7.074219-12.246094-1.429687-5.335937-6.914062-8.503906-12.246093-7.074218l-28.980469 7.761718c-5.335938 1.425782-8.503907 6.910157-7.074219 12.246094l7.761719 28.976563c1.425781 5.332031 6.90625 8.503906 12.246093 7.074219 5.335938-1.429688 8.5-6.910157 7.074219-12.246094l-1.808593-6.738282c40.046874 23.777344 72.746093 58.984376 93.339843 100.960938zm0 0"/><path d="m50.417969 351.59375c-2.433594-4.957031-8.425781-7.003906-13.382813-4.570312-4.957031 2.429687-7.003906 8.421874-4.574218 13.378906 22.113281 45.066406 57.101562 82.929687 99.953124 108.671875l-4.609374 1.234375c-5.335938 1.429687-8.503907 6.914062-7.074219 12.246094 1.199219 4.46875 5.238281 7.417968 9.652343 7.417968.855469 0 1.726563-.113281 2.59375-.34375l28.980469-7.761718c5.335938-1.425782 8.503907-6.910157 7.074219-12.246094l-7.761719-28.976563c-1.429687-5.335937-6.914062-8.503906-12.246093-7.074219-5.335938 1.429688-8.5 6.910157-7.074219 12.246094l1.808593 6.738282c-40.046874-23.777344-72.746093-58.984376-93.339843-100.960938zm0 0"/><path d="m169.800781 109.800781c10.332031 0 20.164063 4.960938 27.679688 13.976563 3.539062 4.238281 9.84375 4.8125 14.085937 1.273437 4.238282-3.539062 4.8125-9.84375 1.273438-14.085937-11.386719-13.648438-26.667969-21.164063-43.039063-21.164063-24.644531 0-44.839843 17.097657-54.234375 40.199219h-15.765625c-5.523437 0-10 4.277344-10 9.800781 0 5.523438 4.476563 10 10 10h10.617188c-.402344 3.292969-.617188 6.628907-.617188 10 0 3.371094.214844 6.90625.617188 10.199219h-10.617188c-5.523437 0-10 4.277344-10 9.800781 0 5.523438 4.476563 10 10 10h15.765625c9.382813 23.066407 29.554688 40 54.234375 40 16.371094 0 31.652344-7.515625 43.039063-21.164062 3.539062-4.242188 2.96875-10.546875-1.273438-14.085938-4.242187-3.535156-10.546875-2.96875-14.085937 1.273438-7.515625 9.011719-17.347657 13.976562-27.679688 13.976562-13.570312 0-24.957031-8.414062-31.9375-20h31.9375c5.523438 0 10-4.476562 10-10 0-5.523437-4.476562-9.800781-10-9.800781h-39.1875c-.535156-3.265625-.8125-6.808594-.8125-10.199219 0-3.394531.277344-6.734375.8125-10h39.1875c5.523438 0 10-4.476562 10-10 0-5.523437-4.476562-9.800781-10-9.800781h-31.941406c6.980469-11.585938 18.375-20.199219 31.941406-20.199219zm0 0"/></svg>