<svg height="480pt" viewBox="0 -80 480 480" width="480pt" xmlns="http://www.w3.org/2000/svg"><path d="m168 216h-56v-40h-16v40h-56c-4.417969 0-8 3.582031-8 8v40h16v-32h112v32h16v-40c0-4.417969-3.582031-8-8-8zm0 0" fill="#003d5c"/><path d="m432 216h-56v-40h-16v40h-56c-4.417969 0-8 3.582031-8 8v40h16v-32h112v32h16v-40c0-4.417969-3.582031-8-8-8zm0 0" fill="#003d5c"/><path d="m368 88h-120v-40h-16v40h-128c-4.417969 0-8 3.582031-8 8v40h16v-32h248v32h16v-40c0-4.417969-3.582031-8-8-8zm0 0" fill="#003d5c"/><g fill="#ffe184"><path d="m8 256h80c4.417969 0 8 3.582031 8 8v48c0 4.417969-3.582031 8-8 8h-80c-4.417969 0-8-3.582031-8-8v-48c0-4.417969 3.582031-8 8-8zm0 0"/><path d="m136 256h80c4.417969 0 8 3.582031 8 8v48c0 4.417969-3.582031 8-8 8h-80c-4.417969 0-8-3.582031-8-8v-48c0-4.417969 3.582031-8 8-8zm0 0"/><path d="m264 256h80c4.417969 0 8 3.582031 8 8v48c0 4.417969-3.582031 8-8 8h-80c-4.417969 0-8-3.582031-8-8v-48c0-4.417969 3.582031-8 8-8zm0 0"/><path d="m392 256h80c4.417969 0 8 3.582031 8 8v48c0 4.417969-3.582031 8-8 8h-80c-4.417969 0-8-3.582031-8-8v-48c0-4.417969 3.582031-8 8-8zm0 0"/></g><path d="m64 128h80c4.417969 0 8 3.582031 8 8v48c0 4.417969-3.582031 8-8 8h-80c-4.417969 0-8-3.582031-8-8v-48c0-4.417969 3.582031-8 8-8zm0 0" fill="#ffcc5c"/><path d="m328 128h80c4.417969 0 8 3.582031 8 8v48c0 4.417969-3.582031 8-8 8h-80c-4.417969 0-8-3.582031-8-8v-48c0-4.417969 3.582031-8 8-8zm0 0" fill="#ffcc5c"/><path d="m184 0h112c4.417969 0 8 3.582031 8 8v48c0 4.417969-3.582031 8-8 8h-112c-4.417969 0-8-3.582031-8-8v-48c0-4.417969 3.582031-8 8-8zm0 0" fill="#f7931e"/></svg>